<?xml version="1.0" encoding="utf-8"?>
<!-- Generator: Adobe Illustrator 23.0.0, SVG Export Plug-In . SVG Version: 6.00 Build 0)  -->
<svg version="1.1" id="Layer_1" xmlns="http://www.w3.org/2000/svg" xmlns:xlink="http://www.w3.org/1999/xlink" x="0px" y="0px"
	 viewBox="0 0 280 280" style="enable-background:new 0 0 280 280;" xml:space="preserve">
<style type="text/css">
	.st0{fill:#49433F;}
	.st1{fill:#8C9A9A;}
	.st2{fill:#E41C24;}
	.st3{fill:#FFFFFF;}
	.st4{fill:#3A3532;}
	.st5{fill:#A35D45;}
	.st6{fill:#BA7052;}
	.st7{fill:#75706B;}
	.st8{fill:#CC8269;}
	.st9{fill:#C4DEE8;}
	.st10{fill:#E1F3F9;}
</style>
<g>
	<path class="st0" d="M26.3,70h227.5c14.5,0,26.3,11.8,26.3,26.3v157.5c0,14.5-11.8,26.3-26.3,26.3H26.3C11.8,280,0,268.3,0,253.8
		V96.3C0,81.8,11.8,70,26.3,70z"/>
	<g>
		<path class="st1" d="M227.5,122.5H245c4.8,0,8.8-3.9,8.8-8.8s-3.9-8.8-8.8-8.8h-17.5c-4.8,0-8.8,3.9-8.8,8.8
			S222.7,122.5,227.5,122.5z M245,131.3h-17.5c-4.8,0-8.8,3.9-8.8,8.8s3.9,8.8,8.8,8.8H245c4.8,0,8.8-3.9,8.8-8.8
			S249.9,131.3,245,131.3z M245,157.5h-17.5c-4.8,0-8.8,3.9-8.8,8.8s3.9,8.8,8.8,8.8H245c4.8,0,8.8-3.9,8.8-8.8
			S249.9,157.5,245,157.5z"/>
	</g>
	<path class="st2" d="M236.3,218.8c9.7,0,17.5,7.8,17.5,17.5s-7.8,17.5-17.5,17.5s-17.5-7.8-17.5-17.5S226.6,218.8,236.3,218.8z"/>
	<path class="st3" d="M43.8,96.3H175c9.7,0,17.5,7.8,17.5,17.5v122.5c0,9.7-7.8,17.5-17.5,17.5H43.8c-9.7,0-17.5-7.8-17.5-17.5
		V113.8C26.3,104.1,34.1,96.3,43.8,96.3z"/>
	<g>
		<path class="st0" d="M157.5,0c-4.8,0-8.8,3.9-8.8,8.8c0,0.6,0.2,1.2,0.4,1.8l-39.7,39.7L69.6,10.5C69.8,9.9,70,9.4,70,8.8
			C70,3.9,66.1,0,61.3,0s-8.8,3.9-8.8,8.8s3.9,8.8,8.8,8.8c0.6,0,1.2-0.2,1.8-0.4l44.2,44.2l2.1-2.1l2.1,2.1l44.2-44.2
			c0.6,0.1,1.2,0.4,1.8,0.4c4.8,0,8.8-3.9,8.8-8.8S162.4,0,157.5,0z"/>
	</g>
	<path class="st4" d="M131.3,52.5H87.5C77.8,52.5,70,60.3,70,70c0,0.2,78.8-0.3,78.8,0.1C148.8,60.4,140.9,52.5,131.3,52.5z"/>
</g>
<g>
	<path class="st5" d="M138.3,158.7c0,0,3.1,26.8,49.1,43.9l-18.5-31.7l-12.3-11.3L138.3,158.7z"/>
	<path class="st5" d="M107.2,142.3c0,0-26.5,16.9-75.8-12.1l42.3-6.6l27.9,5.8L107.2,142.3z"/>
	<path class="st5" d="M135,243.7c-0.3,0.6-0.7,1.2-1.2,1.7c-1.1,1.1-2.6,1.7-4,1.7c-1.5,0-2.9-0.6-4-1.7l-25.6-25.6l8.1-8.1
		l25.6,25.6C135.5,239,135.9,241.6,135,243.7z"/>
</g>
<path class="st6" d="M135,243.7c-0.7,0.3-1.5,0.5-2.3,0.5c-1.5,0-2.9-0.6-4-1.7L103,217l5.2-5.2l25.6,25.6
	C135.5,239,135.9,241.6,135,243.7z"/>
<circle class="st7" cx="81.1" cy="192.7" r="33.2"/>
<path class="st6" d="M168.9,170.8l-18.5,0.5l-3.6-3.8l-8.4-8.8l-31.1-16.4l-33.5-18.7c0,0,14-33.7,62.7-14.9l10.1,4.9l7.8,3.7
	C197.6,142.8,168.9,170.8,168.9,170.8z"/>
<path class="st5" d="M168.9,170.8l-18.5,0.5l-3.6-3.8c0.5-1.3,1.3-2.7,2.7-4.4c15.3-18.9,1.9-42.4-2.9-49.6l7.8,3.7
	C197.6,142.8,168.9,170.8,168.9,170.8z"/>
<path class="st8" d="M107.2,142.3l31.1,16.4l17.5-45.3c0.8-2-0.1-4.4-2.1-5.3l-9-4.3c-1.7-0.8-3.7-0.4-5,1L107.2,142.3z"/>
<circle class="st9" cx="81.1" cy="192.7" r="24.7"/>
<path class="st10" d="M63.6,175.2c-1.3,1.3-2.4,2.7-3.4,4.2c9.6-6.1,22.4-5,30.8,3.4s9.5,21.2,3.4,30.8c1.5-1,2.9-2.1,4.2-3.4
	c9.7-9.7,9.7-25.3,0-35C88.9,165.5,73.3,165.5,63.6,175.2z"/>
</svg>
